<mxfile host="app.diagrams.net" modified="2021-11-07T14:25:22.586Z" agent="5.0 (Windows NT 10.0; Win64; x64) AppleWebKit/537.36 (KHTML, like Gecko) Chrome/95.0.4638.54 Safari/537.36 Edg/95.0.1020.40" etag="xBH-bf4rYNSaqa-w9vgh" version="15.7.0" type="github">
  <diagram id="AjNSmi7TReImnbimb0rs" name="Page-1">
    <mxGraphModel dx="1240" dy="643" grid="1" gridSize="10" guides="1" tooltips="1" connect="1" arrows="1" fold="1" page="1" pageScale="1" pageWidth="850" pageHeight="1100" math="0" shadow="0">
      <root>
        <mxCell id="0" />
        <mxCell id="1" parent="0" />
        <mxCell id="yfVYI24y0XGce3VfnweB-57" style="edgeStyle=orthogonalEdgeStyle;rounded=0;orthogonalLoop=1;jettySize=auto;html=1;endArrow=block;endFill=0;dashed=1;" edge="1" parent="1" source="yfVYI24y0XGce3VfnweB-1" target="yfVYI24y0XGce3VfnweB-41">
          <mxGeometry relative="1" as="geometry">
            <Array as="points">
              <mxPoint x="210" y="410" />
              <mxPoint x="460" y="410" />
            </Array>
          </mxGeometry>
        </mxCell>
        <mxCell id="yfVYI24y0XGce3VfnweB-1" value="&lt;br&gt;&lt;b&gt;AgeSortStrategy&lt;/b&gt;" style="swimlane;fontStyle=0;align=center;verticalAlign=top;childLayout=stackLayout;horizontal=1;startSize=55;horizontalStack=0;resizeParent=1;resizeParentMax=0;resizeLast=0;collapsible=0;marginBottom=0;html=1;" vertex="1" parent="1">
          <mxGeometry x="50" y="550" width="230" height="83" as="geometry" />
        </mxCell>
        <mxCell id="yfVYI24y0XGce3VfnweB-6" value="" style="line;strokeWidth=1;fillColor=none;align=left;verticalAlign=middle;spacingTop=-1;spacingLeft=3;spacingRight=3;rotatable=0;labelPosition=right;points=[];portConstraint=eastwest;" vertex="1" parent="yfVYI24y0XGce3VfnweB-1">
          <mxGeometry y="55" width="230" height="8" as="geometry" />
        </mxCell>
        <mxCell id="yfVYI24y0XGce3VfnweB-8" value="+customSort(people:List&amp;lt;Person&amp;gt;):void&amp;nbsp;" style="text;html=1;strokeColor=none;fillColor=none;align=left;verticalAlign=middle;spacingLeft=4;spacingRight=4;overflow=hidden;rotatable=0;points=[[0,0.5],[1,0.5]];portConstraint=eastwest;" vertex="1" parent="yfVYI24y0XGce3VfnweB-1">
          <mxGeometry y="63" width="230" height="20" as="geometry" />
        </mxCell>
        <mxCell id="yfVYI24y0XGce3VfnweB-60" style="edgeStyle=orthogonalEdgeStyle;rounded=0;orthogonalLoop=1;jettySize=auto;html=1;dashed=1;endArrow=block;endFill=0;" edge="1" parent="1" source="yfVYI24y0XGce3VfnweB-9" target="yfVYI24y0XGce3VfnweB-41">
          <mxGeometry relative="1" as="geometry">
            <Array as="points">
              <mxPoint x="770" y="360" />
            </Array>
          </mxGeometry>
        </mxCell>
        <mxCell id="yfVYI24y0XGce3VfnweB-9" value="&lt;br&gt;&lt;b&gt;HeightSortStrategy&lt;/b&gt;" style="swimlane;fontStyle=0;align=center;verticalAlign=top;childLayout=stackLayout;horizontal=1;startSize=55;horizontalStack=0;resizeParent=1;resizeParentMax=0;resizeLast=0;collapsible=0;marginBottom=0;html=1;" vertex="1" parent="1">
          <mxGeometry x="580" y="660" width="230" height="83" as="geometry" />
        </mxCell>
        <mxCell id="yfVYI24y0XGce3VfnweB-14" value="" style="line;strokeWidth=1;fillColor=none;align=left;verticalAlign=middle;spacingTop=-1;spacingLeft=3;spacingRight=3;rotatable=0;labelPosition=right;points=[];portConstraint=eastwest;" vertex="1" parent="yfVYI24y0XGce3VfnweB-9">
          <mxGeometry y="55" width="230" height="8" as="geometry" />
        </mxCell>
        <mxCell id="yfVYI24y0XGce3VfnweB-16" value="+customSort(people:List&amp;lt;Person&amp;gt;):void&amp;nbsp;" style="text;html=1;strokeColor=none;fillColor=none;align=left;verticalAlign=middle;spacingLeft=4;spacingRight=4;overflow=hidden;rotatable=0;points=[[0,0.5],[1,0.5]];portConstraint=eastwest;" vertex="1" parent="yfVYI24y0XGce3VfnweB-9">
          <mxGeometry y="63" width="230" height="20" as="geometry" />
        </mxCell>
        <mxCell id="yfVYI24y0XGce3VfnweB-58" style="edgeStyle=orthogonalEdgeStyle;rounded=0;orthogonalLoop=1;jettySize=auto;html=1;endArrow=block;endFill=0;dashed=1;" edge="1" parent="1" source="yfVYI24y0XGce3VfnweB-17" target="yfVYI24y0XGce3VfnweB-41">
          <mxGeometry relative="1" as="geometry">
            <Array as="points">
              <mxPoint x="390" y="497" />
              <mxPoint x="500" y="497" />
            </Array>
          </mxGeometry>
        </mxCell>
        <mxCell id="yfVYI24y0XGce3VfnweB-17" value="&lt;br&gt;&lt;b&gt;NameSortStrategy&lt;/b&gt;" style="swimlane;fontStyle=0;align=center;verticalAlign=top;childLayout=stackLayout;horizontal=1;startSize=55;horizontalStack=0;resizeParent=1;resizeParentMax=0;resizeLast=0;collapsible=0;marginBottom=0;html=1;" vertex="1" parent="1">
          <mxGeometry x="300" y="680" width="180" height="83" as="geometry" />
        </mxCell>
        <mxCell id="yfVYI24y0XGce3VfnweB-22" value="" style="line;strokeWidth=1;fillColor=none;align=left;verticalAlign=middle;spacingTop=-1;spacingLeft=3;spacingRight=3;rotatable=0;labelPosition=right;points=[];portConstraint=eastwest;" vertex="1" parent="yfVYI24y0XGce3VfnweB-17">
          <mxGeometry y="55" width="180" height="8" as="geometry" />
        </mxCell>
        <mxCell id="yfVYI24y0XGce3VfnweB-24" value="+customSort(people:List&amp;lt;Person&amp;gt;):void&amp;nbsp;" style="text;html=1;strokeColor=none;fillColor=none;align=left;verticalAlign=middle;spacingLeft=4;spacingRight=4;overflow=hidden;rotatable=0;points=[[0,0.5],[1,0.5]];portConstraint=eastwest;" vertex="1" parent="yfVYI24y0XGce3VfnweB-17">
          <mxGeometry y="63" width="180" height="20" as="geometry" />
        </mxCell>
        <mxCell id="yfVYI24y0XGce3VfnweB-61" style="edgeStyle=orthogonalEdgeStyle;rounded=0;orthogonalLoop=1;jettySize=auto;html=1;endArrow=open;endFill=0;startArrow=diamond;startFill=0;" edge="1" parent="1" source="yfVYI24y0XGce3VfnweB-25" target="yfVYI24y0XGce3VfnweB-41">
          <mxGeometry relative="1" as="geometry" />
        </mxCell>
        <mxCell id="yfVYI24y0XGce3VfnweB-65" value="0..1" style="edgeLabel;html=1;align=center;verticalAlign=middle;resizable=0;points=[];" vertex="1" connectable="0" parent="yfVYI24y0XGce3VfnweB-61">
          <mxGeometry x="0.7101" relative="1" as="geometry">
            <mxPoint x="15" as="offset" />
          </mxGeometry>
        </mxCell>
        <mxCell id="yfVYI24y0XGce3VfnweB-66" value="&lt;span style=&quot;font-size: 12px ; text-align: left ; background-color: rgb(248 , 249 , 250)&quot;&gt;-sortStrategy&lt;/span&gt;" style="edgeLabel;html=1;align=center;verticalAlign=middle;resizable=0;points=[];" vertex="1" connectable="0" parent="yfVYI24y0XGce3VfnweB-61">
          <mxGeometry x="-0.9014" y="2" relative="1" as="geometry">
            <mxPoint x="38" y="4" as="offset" />
          </mxGeometry>
        </mxCell>
        <mxCell id="yfVYI24y0XGce3VfnweB-25" value="&lt;br&gt;&lt;b&gt;People&lt;/b&gt;" style="swimlane;fontStyle=0;align=center;verticalAlign=top;childLayout=stackLayout;horizontal=1;startSize=55;horizontalStack=0;resizeParent=1;resizeParentMax=0;resizeLast=0;collapsible=0;marginBottom=0;html=1;" vertex="1" parent="1">
          <mxGeometry x="440" y="40" width="280" height="150" as="geometry" />
        </mxCell>
        <mxCell id="yfVYI24y0XGce3VfnweB-27" value="&lt;div&gt;-members:List&amp;lt;Person&amp;gt;&lt;/div&gt;&lt;div&gt;-sortStrategy:SortStrategy&lt;/div&gt;" style="text;html=1;strokeColor=none;fillColor=none;align=left;verticalAlign=middle;spacingLeft=4;spacingRight=4;overflow=hidden;rotatable=0;points=[[0,0.5],[1,0.5]];portConstraint=eastwest;" vertex="1" parent="yfVYI24y0XGce3VfnweB-25">
          <mxGeometry y="55" width="280" height="35" as="geometry" />
        </mxCell>
        <mxCell id="yfVYI24y0XGce3VfnweB-30" value="" style="line;strokeWidth=1;fillColor=none;align=left;verticalAlign=middle;spacingTop=-1;spacingLeft=3;spacingRight=3;rotatable=0;labelPosition=right;points=[];portConstraint=eastwest;" vertex="1" parent="yfVYI24y0XGce3VfnweB-25">
          <mxGeometry y="90" width="280" height="8" as="geometry" />
        </mxCell>
        <mxCell id="yfVYI24y0XGce3VfnweB-32" value="&lt;div&gt;+setSortStrategy(sortStrategy:SortStrategy):void&lt;/div&gt;&lt;div&gt;+addMember(p:Person):void&lt;/div&gt;&lt;div&gt;+print(out:PrintStream):void&lt;/div&gt;" style="text;html=1;strokeColor=none;fillColor=none;align=left;verticalAlign=middle;spacingLeft=4;spacingRight=4;overflow=hidden;rotatable=0;points=[[0,0.5],[1,0.5]];portConstraint=eastwest;" vertex="1" parent="yfVYI24y0XGce3VfnweB-25">
          <mxGeometry y="98" width="280" height="52" as="geometry" />
        </mxCell>
        <mxCell id="yfVYI24y0XGce3VfnweB-62" style="edgeStyle=orthogonalEdgeStyle;rounded=0;orthogonalLoop=1;jettySize=auto;html=1;startArrow=open;startFill=0;endArrow=diamond;endFill=0;" edge="1" parent="1" source="yfVYI24y0XGce3VfnweB-33" target="yfVYI24y0XGce3VfnweB-25">
          <mxGeometry relative="1" as="geometry" />
        </mxCell>
        <mxCell id="yfVYI24y0XGce3VfnweB-63" value="-members" style="edgeLabel;html=1;align=center;verticalAlign=middle;resizable=0;points=[];" vertex="1" connectable="0" parent="yfVYI24y0XGce3VfnweB-62">
          <mxGeometry x="0.7965" relative="1" as="geometry">
            <mxPoint x="-11" y="-20" as="offset" />
          </mxGeometry>
        </mxCell>
        <mxCell id="yfVYI24y0XGce3VfnweB-64" value="0..*" style="edgeLabel;html=1;align=center;verticalAlign=middle;resizable=0;points=[];" vertex="1" connectable="0" parent="yfVYI24y0XGce3VfnweB-62">
          <mxGeometry x="-0.5579" y="-1" relative="1" as="geometry">
            <mxPoint x="-22" y="-16" as="offset" />
          </mxGeometry>
        </mxCell>
        <mxCell id="yfVYI24y0XGce3VfnweB-33" value="&lt;br&gt;&lt;b&gt;Person&lt;/b&gt;" style="swimlane;fontStyle=0;align=center;verticalAlign=top;childLayout=stackLayout;horizontal=1;startSize=55;horizontalStack=0;resizeParent=1;resizeParentMax=0;resizeLast=0;collapsible=0;marginBottom=0;html=1;" vertex="1" parent="1">
          <mxGeometry x="130" y="60" width="190" height="250" as="geometry" />
        </mxCell>
        <mxCell id="yfVYI24y0XGce3VfnweB-35" value="&lt;div&gt;-name:String&lt;/div&gt;&lt;div&gt;-age:Integer&lt;/div&gt;&lt;div&gt;-height:Integer&lt;/div&gt;&lt;div&gt;-weight:Integer&lt;/div&gt;" style="text;html=1;strokeColor=none;fillColor=none;align=left;verticalAlign=middle;spacingLeft=4;spacingRight=4;overflow=hidden;rotatable=0;points=[[0,0.5],[1,0.5]];portConstraint=eastwest;" vertex="1" parent="yfVYI24y0XGce3VfnweB-33">
          <mxGeometry y="55" width="190" height="65" as="geometry" />
        </mxCell>
        <mxCell id="yfVYI24y0XGce3VfnweB-38" value="" style="line;strokeWidth=1;fillColor=none;align=left;verticalAlign=middle;spacingTop=-1;spacingLeft=3;spacingRight=3;rotatable=0;labelPosition=right;points=[];portConstraint=eastwest;" vertex="1" parent="yfVYI24y0XGce3VfnweB-33">
          <mxGeometry y="120" width="190" height="8" as="geometry" />
        </mxCell>
        <mxCell id="yfVYI24y0XGce3VfnweB-40" value="&lt;div&gt;+getName():String&lt;/div&gt;&lt;div&gt;+setName( name:String)void&amp;nbsp;&lt;/div&gt;&lt;div&gt;+getAge():Integer&lt;/div&gt;&lt;div&gt;+setAge(age:Integer):void&amp;nbsp;&lt;/div&gt;&lt;div&gt;+getHeight():Integer&amp;nbsp;&lt;/div&gt;&lt;div&gt;+setHeight(height:Integer):void&amp;nbsp;&lt;/div&gt;&lt;div&gt;+getWeight():Integer&amp;nbsp;&lt;/div&gt;&lt;div&gt;+setWeight(weight:Integer):void&amp;nbsp;&lt;/div&gt;" style="text;html=1;strokeColor=none;fillColor=none;align=left;verticalAlign=middle;spacingLeft=4;spacingRight=4;overflow=hidden;rotatable=0;points=[[0,0.5],[1,0.5]];portConstraint=eastwest;" vertex="1" parent="yfVYI24y0XGce3VfnweB-33">
          <mxGeometry y="128" width="190" height="122" as="geometry" />
        </mxCell>
        <mxCell id="yfVYI24y0XGce3VfnweB-41" value="«interface»&lt;br&gt;&lt;b&gt;SortStrategy&lt;/b&gt;" style="swimlane;fontStyle=0;align=center;verticalAlign=top;childLayout=stackLayout;horizontal=1;startSize=55;horizontalStack=0;resizeParent=1;resizeParentMax=0;resizeLast=0;collapsible=0;marginBottom=0;html=1;" vertex="1" parent="1">
          <mxGeometry x="440" y="280" width="230" height="83" as="geometry" />
        </mxCell>
        <mxCell id="yfVYI24y0XGce3VfnweB-46" value="" style="line;strokeWidth=1;fillColor=none;align=left;verticalAlign=middle;spacingTop=-1;spacingLeft=3;spacingRight=3;rotatable=0;labelPosition=right;points=[];portConstraint=eastwest;" vertex="1" parent="yfVYI24y0XGce3VfnweB-41">
          <mxGeometry y="55" width="230" height="8" as="geometry" />
        </mxCell>
        <mxCell id="yfVYI24y0XGce3VfnweB-48" value="~customSort(people:List&amp;lt;Person&amp;gt;):void&amp;nbsp;" style="text;html=1;strokeColor=none;fillColor=none;align=left;verticalAlign=middle;spacingLeft=4;spacingRight=4;overflow=hidden;rotatable=0;points=[[0,0.5],[1,0.5]];portConstraint=eastwest;" vertex="1" parent="yfVYI24y0XGce3VfnweB-41">
          <mxGeometry y="63" width="230" height="20" as="geometry" />
        </mxCell>
        <mxCell id="yfVYI24y0XGce3VfnweB-59" style="edgeStyle=orthogonalEdgeStyle;rounded=0;orthogonalLoop=1;jettySize=auto;html=1;endArrow=block;endFill=0;dashed=1;" edge="1" parent="1" source="yfVYI24y0XGce3VfnweB-49" target="yfVYI24y0XGce3VfnweB-41">
          <mxGeometry relative="1" as="geometry">
            <Array as="points">
              <mxPoint x="580" y="460" />
              <mxPoint x="580" y="460" />
            </Array>
          </mxGeometry>
        </mxCell>
        <mxCell id="yfVYI24y0XGce3VfnweB-49" value="&lt;br&gt;&lt;b&gt;WeightStrategy&lt;/b&gt;" style="swimlane;fontStyle=0;align=center;verticalAlign=top;childLayout=stackLayout;horizontal=1;startSize=55;horizontalStack=0;resizeParent=1;resizeParentMax=0;resizeLast=0;collapsible=0;marginBottom=0;html=1;" vertex="1" parent="1">
          <mxGeometry x="430" y="530" width="240" height="83" as="geometry" />
        </mxCell>
        <mxCell id="yfVYI24y0XGce3VfnweB-54" value="" style="line;strokeWidth=1;fillColor=none;align=left;verticalAlign=middle;spacingTop=-1;spacingLeft=3;spacingRight=3;rotatable=0;labelPosition=right;points=[];portConstraint=eastwest;" vertex="1" parent="yfVYI24y0XGce3VfnweB-49">
          <mxGeometry y="55" width="240" height="8" as="geometry" />
        </mxCell>
        <mxCell id="yfVYI24y0XGce3VfnweB-56" value="+customSort(people:List&amp;lt;Person&amp;gt;):void&amp;nbsp;" style="text;html=1;strokeColor=none;fillColor=none;align=left;verticalAlign=middle;spacingLeft=4;spacingRight=4;overflow=hidden;rotatable=0;points=[[0,0.5],[1,0.5]];portConstraint=eastwest;" vertex="1" parent="yfVYI24y0XGce3VfnweB-49">
          <mxGeometry y="63" width="240" height="20" as="geometry" />
        </mxCell>
      </root>
    </mxGraphModel>
  </diagram>
</mxfile>
